<svg width="32" height="32" viewBox="0 0 32 32" fill="none" xmlns="http://www.w3.org/2000/svg">
  <!-- Background circle -->
  <circle cx="16" cy="16" r="16" fill="#2563eb"/>
  
  <!-- Book icon -->
  <g transform="translate(8, 6)">
    <!-- Main book body -->
    <rect x="2" y="2" width="12" height="16" rx="1" fill="white" opacity="0.95"/>
    
    <!-- Book spine -->
    <rect x="2" y="2" width="2" height="16" rx="1" fill="#1d4ed8"/>
    
    <!-- Book pages lines -->
    <line x1="5" y1="6" x2="12" y2="6" stroke="#94a3b8" stroke-width="0.5"/>
    <line x1="5" y1="8" x2="12" y2="8" stroke="#94a3b8" stroke-width="0.5"/>
    <line x1="5" y1="10" x2="12" y2="10" stroke="#94a3b8" stroke-width="0.5"/>
    <line x1="5" y1="12" x2="12" y2="12" stroke="#94a3b8" stroke-width="0.5"/>
    
    <!-- Small calculator symbol -->
    <rect x="9" y="13" width="4" height="3" rx="0.5" fill="#059669" opacity="0.8"/>
    <circle cx="10" cy="14" r="0.3" fill="white"/>
    <circle cx="11.5" cy="14" r="0.3" fill="white"/>
    <circle cx="10.75" cy="15" r="0.3" fill="white"/>
  </g>
  
  <!-- Small shipping icon -->
  <g transform="translate(20, 4)">
    <path d="M0 4 L6 4 L8 2 L8 8 L6 6 L0 6 Z" fill="white" opacity="0.7"/>
    <circle cx="2" cy="7" r="1" fill="white" opacity="0.7"/>
    <circle cx="6" cy="7" r="1" fill="white" opacity="0.7"/>
  </g>
</svg>